# xmcd
#
# Track frame offsets:
#	150
#	12289
#	26649
#	47894
#	63409
#	86115
#	106455
#	131163
#	151323
#	176852
#
# Disc length: 2577 seconds
#
# Revision: 1
# Processed by: cddbd v1.5.2PL0 Copyright (c) Steve Scherf et al.
# Submitted via: audiograbber 1.83.01
#
DISCID=880a0f0a
DTITLE=Rock´ Roll Vol 1 PGP - Rock´ Roll Vol 1PGP
DYEAR=2007
DGENRE=Rock
TTITLE0=Riblja Corba-Rock´n Roll za kucni savet
TTITLE1=Parni Valjak-Prevela me mala 
TTITLE2=Time-Rock´n Roll u Beogradu
TTITLE3=Bajaga -220V
TTITLE4=Dado Topic-Floyd
TTITLE5=Generacija 5-Umoran od svega
TTITLE6=Vatreni poljubac-Recept za Rock´n Roll
TTITLE7=Jadranka Stojakovic-Cekala sam
TTITLE8=Indexi-Svidjas mi se
TTITLE9=Buldozer-Helga
EXTD=
EXTT0=
EXTT1=
EXTT2=
EXTT3=
EXTT4=
EXTT5=
EXTT6=
EXTT7=
EXTT8=
EXTT9=
PLAYORDER=
